<mxfile host="app.diagrams.net" modified="2022-04-27T17:16:21.119Z" agent="5.0 (Windows NT 10.0; Win64; x64) AppleWebKit/537.36 (KHTML, like Gecko) Chrome/100.0.4896.127 Safari/537.36" etag="zioeNqS0FjrKc8XCOvuw" version="17.4.6" type="github">
  <diagram id="xAS_imKOM5dSRvDQSPRO" name="Page-1">
    <mxGraphModel dx="2062" dy="1054" grid="1" gridSize="10" guides="1" tooltips="1" connect="1" arrows="1" fold="1" page="1" pageScale="1" pageWidth="827" pageHeight="1169" math="0" shadow="0">
      <root>
        <mxCell id="0" />
        <mxCell id="1" parent="0" />
        <mxCell id="gz3p5Tc1IfwTcuqHf2xV-1" value="SPF Einrichtungsassistent" style="swimlane;align=center;" vertex="1" parent="1">
          <mxGeometry x="200" y="140" width="1240" height="730" as="geometry" />
        </mxCell>
        <mxCell id="gz3p5Tc1IfwTcuqHf2xV-2" value="Sender einstellen" style="text;html=1;strokeColor=none;fillColor=none;align=center;verticalAlign=middle;whiteSpace=wrap;rounded=0;" vertex="1" parent="gz3p5Tc1IfwTcuqHf2xV-1">
          <mxGeometry x="160" y="70" width="60" height="30" as="geometry" />
        </mxCell>
        <mxCell id="gz3p5Tc1IfwTcuqHf2xV-3" value="Empfänger einstellen" style="text;html=1;strokeColor=none;fillColor=none;align=center;verticalAlign=middle;whiteSpace=wrap;rounded=0;" vertex="1" parent="gz3p5Tc1IfwTcuqHf2xV-1">
          <mxGeometry x="590" y="70" width="60" height="30" as="geometry" />
        </mxCell>
        <mxCell id="gz3p5Tc1IfwTcuqHf2xV-5" value="DNS Einträge" style="text;html=1;strokeColor=none;fillColor=none;align=center;verticalAlign=middle;whiteSpace=wrap;rounded=0;" vertex="1" parent="gz3p5Tc1IfwTcuqHf2xV-1">
          <mxGeometry x="1020" y="70" width="60" height="30" as="geometry" />
        </mxCell>
        <mxCell id="gz3p5Tc1IfwTcuqHf2xV-7" value="" style="endArrow=none;html=1;rounded=0;" edge="1" parent="gz3p5Tc1IfwTcuqHf2xV-1">
          <mxGeometry width="50" height="50" relative="1" as="geometry">
            <mxPoint x="680" y="90" as="sourcePoint" />
            <mxPoint x="1000" y="90" as="targetPoint" />
          </mxGeometry>
        </mxCell>
        <mxCell id="gz3p5Tc1IfwTcuqHf2xV-8" value="" style="ellipse;whiteSpace=wrap;html=1;fillColor=none;" vertex="1" parent="gz3p5Tc1IfwTcuqHf2xV-1">
          <mxGeometry x="140" y="50" width="100" height="70" as="geometry" />
        </mxCell>
        <mxCell id="gz3p5Tc1IfwTcuqHf2xV-12" value="Absender E-Mail-Adresse" style="text;html=1;strokeColor=none;fillColor=none;align=right;verticalAlign=middle;whiteSpace=wrap;rounded=0;" vertex="1" parent="gz3p5Tc1IfwTcuqHf2xV-1">
          <mxGeometry x="200" y="340" width="160" height="40" as="geometry" />
        </mxCell>
        <mxCell id="gz3p5Tc1IfwTcuqHf2xV-13" value="Absender Name" style="text;html=1;strokeColor=none;fillColor=none;align=right;verticalAlign=middle;whiteSpace=wrap;rounded=0;" vertex="1" parent="gz3p5Tc1IfwTcuqHf2xV-1">
          <mxGeometry x="200" y="420" width="160" height="40" as="geometry" />
        </mxCell>
        <mxCell id="gz3p5Tc1IfwTcuqHf2xV-14" value="" style="rounded=0;whiteSpace=wrap;html=1;fillColor=none;" vertex="1" parent="gz3p5Tc1IfwTcuqHf2xV-1">
          <mxGeometry x="400" y="420" width="560" height="40" as="geometry" />
        </mxCell>
        <mxCell id="gz3p5Tc1IfwTcuqHf2xV-17" value="&lt;font color=&quot;#999999&quot;&gt;z.B. Max Mustermann&lt;/font&gt;" style="text;html=1;strokeColor=none;fillColor=none;align=left;verticalAlign=middle;whiteSpace=wrap;rounded=0;" vertex="1" parent="gz3p5Tc1IfwTcuqHf2xV-1">
          <mxGeometry x="420" y="420" width="140" height="40" as="geometry" />
        </mxCell>
        <mxCell id="gz3p5Tc1IfwTcuqHf2xV-18" value="&lt;font color=&quot;#000000&quot;&gt;Stellen Sie hier die Absender Adresse ein. Diese Adresse und der Name, ist der Absender von einer E-Mail, die Sie versenden.&lt;/font&gt;" style="text;html=1;strokeColor=none;fillColor=none;align=left;verticalAlign=middle;whiteSpace=wrap;rounded=0;fontColor=#999999;" vertex="1" parent="gz3p5Tc1IfwTcuqHf2xV-1">
          <mxGeometry x="400" y="260" width="560" height="40" as="geometry" />
        </mxCell>
        <mxCell id="gz3p5Tc1IfwTcuqHf2xV-11" value="" style="rounded=0;whiteSpace=wrap;html=1;fillColor=none;" vertex="1" parent="gz3p5Tc1IfwTcuqHf2xV-1">
          <mxGeometry x="400" y="340" width="560" height="40" as="geometry" />
        </mxCell>
        <mxCell id="gz3p5Tc1IfwTcuqHf2xV-15" value="&lt;font color=&quot;#999999&quot;&gt;z.B. name@beispiel.de&lt;/font&gt;" style="text;html=1;strokeColor=none;fillColor=none;align=left;verticalAlign=middle;whiteSpace=wrap;rounded=0;" vertex="1" parent="gz3p5Tc1IfwTcuqHf2xV-1">
          <mxGeometry x="420" y="340" width="140" height="40" as="geometry" />
        </mxCell>
        <mxCell id="gz3p5Tc1IfwTcuqHf2xV-19" value="Weiter" style="rounded=0;whiteSpace=wrap;html=1;fontColor=#000000;fillColor=none;" vertex="1" parent="gz3p5Tc1IfwTcuqHf2xV-1">
          <mxGeometry x="981" y="660" width="120" height="40" as="geometry" />
        </mxCell>
        <mxCell id="gz3p5Tc1IfwTcuqHf2xV-20" value="Abbrechen" style="rounded=0;whiteSpace=wrap;html=1;fontColor=#000000;fillColor=none;" vertex="1" parent="gz3p5Tc1IfwTcuqHf2xV-1">
          <mxGeometry x="560" y="660" width="120" height="40" as="geometry" />
        </mxCell>
        <mxCell id="gz3p5Tc1IfwTcuqHf2xV-6" value="" style="endArrow=none;html=1;rounded=0;" edge="1" parent="1">
          <mxGeometry width="50" height="50" relative="1" as="geometry">
            <mxPoint x="440" y="230" as="sourcePoint" />
            <mxPoint x="760" y="230" as="targetPoint" />
          </mxGeometry>
        </mxCell>
      </root>
    </mxGraphModel>
  </diagram>
</mxfile>
